<svg xmlns="http://www.w3.org/2000/svg" viewBox="0 0 500 500" width="500" height="500">
	<style>
		tspan { white-space:pre }
		.shp0 { fill: #000000 } 
	</style>
	<path id="Layer" class="shp0" d="M480,19.88v460.25h-460v-460.25zM270.33,378.83v-147.63h-43.23v147.01c0,21.68 -9.04,27.22 -23.21,27.22c-14.89,0 -21.05,-10.17 -27.83,-22.19l-35.22,21.27c10.27,21.68 30.29,39.55 64.89,39.55c38.3,0 64.58,-20.44 64.58,-65.24zM372.6,444.07c40.97,0 71.57,-21.37 71.57,-60.2c0,-36.16 -20.64,-52.29 -57.4,-68.01l-10.78,-4.62c-18.58,-8.12 -26.59,-13.36 -26.59,-26.3c0,-10.48 8.01,-18.49 20.64,-18.49c12.42,0 20.43,5.24 27.83,18.49l33.68,-21.57c-14.17,-25.07 -33.88,-34.62 -61.4,-34.62c-38.5,0 -63.25,24.66 -63.25,57.12c0,35.24 20.64,51.98 51.85,65.24l10.78,4.62c19.82,8.73 31.52,13.97 31.52,28.77c0,12.43 -11.5,21.37 -29.37,21.37c-21.25,0 -33.37,-11.2 -42.61,-26.3l-35.22,20.34c12.63,25.07 38.61,44.18 78.75,44.18z" />
</svg>