<svg xmlns="http://www.w3.org/2000/svg" viewBox="0 0 500 500" width="500" height="500">
	<style>
		tspan { white-space:pre }
		.shp0 { fill: #000000 } 
	</style>
	<path id="Layer" class="shp0" d="M263.13,20h90.6v90.6h-90.6zM143.51,139.27h90.6v90.6h-90.6zM20,20h90.6v90.6h-90.6zM20,258.89h90.6v90.6h-90.6zM20,139.27h90.6v90.6h-90.6zM143.51,20h90.6v90.6h-90.6zM139.27,382.4h90.6v90.6h-90.6zM258.89,263.13h90.6v90.6h-90.6zM473,143.51v90.6h-90.6v-90.6zM258.89,382.4h90.6v90.6h-90.6zM382.4,263.13h90.6v90.6h-90.6zM382.4,382.4h90.6v90.6l-90.6,0z" />
</svg>